HIERARCHY
ROOT Hips
{
	OFFSET 0.000000 0.000000 0.000000 
	CHANNELS 6 Xposition Yposition Zposition Yrotation Zrotation Xrotation 
	JOINT Lumbar
	{
		OFFSET 0.000000 0.000000 0.000000 
		CHANNELS 3 Zrotation Xrotation Yrotation
		JOINT Neck
		{
			OFFSET 0.000000 0.445665 0.000000 
			CHANNELS 3 Zrotation Xrotation Yrotation
			End Site
			{
				OFFSET 0.000000 0.227535 0.000000 
			}
		}
		JOINT RightShoulder
		{
			OFFSET 0.019635 0.377685 0.194865 
			CHANNELS 3 Zrotation Xrotation Yrotation
			JOINT RightElbow
			{
				OFFSET 0.000000 -0.243375 0.000000 
				CHANNELS 2 Zrotation Yrotation
				JOINT RightWrist
				{
					OFFSET 0.000000 -0.264825 0.000000 
					CHANNELS 2 Zrotation Xrotation
					End Site
					{
						OFFSET 0.006600 -0.176220 0.000990 
					}
				}
			}
		}
		JOINT LeftShoulder
		{
			OFFSET 0.019635 0.377685 -0.194865 
			CHANNELS 3 Zrotation Xrotation Yrotation
			JOINT LeftElbow
			{
				OFFSET 0.000000 -0.243375 0.000000 
				CHANNELS 2 Zrotation Yrotation
				JOINT LeftWrist
				{
					OFFSET 0.000000 -0.264825 0.000000 
					CHANNELS 2 Zrotation Xrotation
					End Site
					{
						OFFSET 0.006600 -0.176220 -0.000990 
					}
				}
			}
		}
	}
	JOINT RightHip
	{
		OFFSET 0.052140 -0.069960 0.075570 
		CHANNELS 3 Zrotation Xrotation Yrotation
		JOINT RightKnee
		{
			OFFSET 0.000000 -0.402270 0.000000 
			CHANNELS 1 Zrotation
			JOINT RightAnkle
			{
				OFFSET 0.000000 -0.404085 0.000000 
				CHANNELS 3 Zrotation Xrotation Yrotation
				End Site
				{
					OFFSET 0.204105 -0.089430 0.008415 
				}
			}
		}
	}
	JOINT LeftHip
	{
		OFFSET 0.052140 -0.069960 -0.075570 
		CHANNELS 3 Zrotation Xrotation Yrotation
		JOINT LeftKnee
		{
			OFFSET 0.000000 -0.402270 0.000000 
			CHANNELS 1 Zrotation
			JOINT LeftAnkle
			{
				OFFSET 0.000000 -0.404085 0.000000 
				CHANNELS 3 Zrotation Xrotation Yrotation
				End Site
				{
					OFFSET 0.204105 -0.089430 -0.008415 
				}
			}
		}
	}
}
MOTION
Frames: 17
Frame Time: 0.02
-0.25239 0.95981 0.06688 206.04055 0 -3.09937 9.37448 3.4342 -4.39778 -15.01093 3.06946 -4.55287 27.19793 -19.31972 25.50654 90.74001 48.25402 -9.79583 6.96821 35.35108 18.17391 -10.07509 81.45254 -34.24446 -27.29544 -4.22335 -6.82765 8.18518 24.40892 -4.12088 -0.12781 -4.45588 -12.64217 -3.40349 -0.33279 -11.43642 -6.52783 5.28757 5.64205 7.84934
-0.25212 0.95975 0.06701 206.05477 0 -3.0975 9.04414 3.39098 -4.34157 -13.68228 3.26164 -4.25874 25.3112 -19.43659 22.24945 93.14023 50.02363 -12.47757 5.79884 30.69377 16.95465 -7.69275 84.77311 -35.01312 -27.2552 -4.05054 -6.83589 8.11888 23.00199 -4.05613 -0.01611 -4.32754 -11.26338 -3.43221 -0.33626 -11.37085 -6.44694 5.27131 5.6164 7.77866
-0.25184 0.95969 0.06719 206.11843 0 -3.08531 8.67382 3.37256 -4.23748 -12.32463 3.21965 -4.09621 22.91448 -19.30267 18.88052 95.80537 53.77345 -17.32025 3.74929 26.15864 15.81393 -5.2791 87.71252 -36.02861 -27.33252 -3.80492 -6.83676 8.01685 20.69398 -3.99082 0.17389 -4.14267 -9.03501 -3.44745 -0.35176 -11.35581 -6.38323 5.24893 5.58651 7.70924
-0.25156 0.95963 0.06734 206.16695 0 -3.07717 8.32355 3.3415 -4.15148 -10.99229 3.27627 -3.88161 20.76444 -19.27616 15.56635 98.29055 56.56856 -21.13945 2.15859 21.61965 14.66014 -2.91233 90.7721 -36.97627 -27.42265 -3.57847 -6.84271 7.934 18.86732 -3.92509 0.32216 -3.98785 -7.27205 -3.46701 -0.36232 -11.3264 -6.31392 5.2291 5.55852 7.64077
-0.25128 0.95957 0.0675 206.18552 0 -3.07161 7.96366 3.31659 -4.08073 -9.60087 3.36188 -3.64096 18.53763 -19.27026 12.22386 101.04399 59.58619 -25.14199 0.33232 16.84335 13.40793 -0.40537 94.068 -37.76506 -27.25461 -3.40255 -6.84224 7.83957 16.76689 -3.86139 0.49348 -3.81619 -5.20496 -3.49448 -0.37073 -11.26105 -6.23455 5.20993 5.53043 7.56534
-0.251 0.95951 0.06766 206.27798 0 -3.05831 7.6153 3.28461 -3.96794 -8.33052 3.33287 -3.48293 16.35982 -19.16587 8.9242 103.28917 62.60375 -29.26426 -1.21714 12.60414 12.3832 1.81474 96.77379 -38.92343 -27.63927 -3.10952 -6.85303 7.76051 15.00988 -3.79368 0.63648 -3.66574 -3.55644 -3.50223 -0.38634 -11.28226 -6.18032 5.18795 5.50157 7.5046
-0.25069 0.95944 0.06779 206.56054 0 -3.02566 7.30426 3.22715 -3.73797 -7.37819 3.04607 -3.52544 14.37961 -18.83415 5.69858 104.14251 65.27578 -33.29294 -1.78917 9.73909 11.93396 3.25124 97.97723 -41.15516 -29.57805 -2.48268 -6.89715 7.73185 14.43977 -3.71459 0.6823 -3.58574 -3.28834 -3.45802 -0.42044 -11.53218 -6.19358 5.16095 5.47224 7.48809
-0.25038 0.95938 0.0679 206.91582 0 -2.98565 7.00716 3.1617 -3.46929 -6.55376 2.65209 -3.64479 12.47784 -18.41524 2.53482 104.46177 67.86488 -37.34876 -2.05431 7.42639 11.7171 4.39439 98.59385 -43.72741 -32.05476 -1.7465 -6.95271 7.71989 14.23922 -3.63163 0.69729 -3.52918 -3.4636 -3.39457 -0.46111 -11.86698 -6.23127 5.1312 5.44223 7.48574
-0.25008 0.95932 0.06802 207.23902 0 -2.94934 6.7067 3.09969 -3.22703 -5.68706 2.30715 -3.7251 10.58391 -18.04885 -0.61063 104.9711 70.39274 -41.32305 -2.45947 4.91479 11.41579 5.66175 99.45363 -46.06595 -34.24748 -1.07975 -7.00259 7.70071 13.85337 -3.55088 0.72672 -3.46284 -3.42061 -3.34037 -0.49776 -12.16168 -6.25644 5.10194 5.41217 7.47442
-0.24976 0.95925 0.06816 207.56039 0 -2.91121 6.39234 3.03911 -2.94717 -4.75278 1.95356 -3.82763 8.49373 -17.62183 -3.9594 105.70282 73.37184 -45.66249 -2.89011 2.18874 11.02809 6.97059 100.39321 -48.74355 -36.61712 -0.32724 -7.05409 7.67886 13.50903 -3.46837 0.75707 -3.39074 -3.41895 -3.2834 -0.53914 -12.465 -6.28816 5.07555 5.38343 7.47371
-0.24947 0.95921 0.06824 207.90155 0 -2.8752 6.11066 2.97365 -2.73537 -3.98943 1.59433 -3.90026 6.83097 -17.30031 -6.86435 105.85269 75.40972 -49.22262 -3.18673 0.03703 10.87426 8.12056 101.04017 -50.79657 -38.73732 0.27192 -7.10522 7.66686 13.17862 -3.38843 0.77712 -3.33709 -3.44788 -3.22799 -0.57217 -12.76937 -6.31186 5.04273 5.35189 7.45437
-0.24924 0.95922 0.06815 208.28478 0 -2.84741 5.91719 2.89356 -2.73611 -3.67305 1.25834 -3.87176 6.39148 -17.32126 -8.59388 104.42317 74.47344 -50.58934 -3.15504 -0.64576 11.3103 8.9241 100.95304 -51.00001 -40.09569 0.41681 -7.15102 7.67923 12.79294 -3.31823 0.77602 -3.32876 -3.454 -3.18031 -0.57966 -13.05987 -6.30697 4.99173 5.31222 7.3791
-0.24904 0.95926 0.068 208.6842 0 -2.82194 5.7562 2.80925 -2.80432 -3.52367 0.91959 -3.8099 6.37185 -17.44672 -9.87224 102.44381 72.65065 -51.16744 -3.00038 -0.77311 11.9724 9.57436 100.60534 -50.56662 -41.17234 0.40342 -7.19637 7.7009 12.41482 -3.25052 0.76508 -3.33931 -3.48079 -3.13518 -0.57863 -13.34757 -6.29318 4.9346 5.26987 7.2848
-0.24884 0.95929 0.06788 209.07251 0 -2.79506 5.57946 2.7288 -2.83167 -3.2934 0.57461 -3.76237 6.11997 -17.50658 -11.33304 100.78342 71.49078 -52.11728 -2.92006 -1.16782 12.53095 10.28058 100.42602 -50.45449 -42.33959 0.46543 -7.243 7.7176 12.03838 -3.18046 0.75861 -3.34034 -3.5 -3.08979 -0.58203 -13.6336 -6.28366 4.88099 5.22913 7.19983
-0.24859 0.95932 0.06773 209.47916 0 -2.76941 5.40679 2.63998 -2.89975 -3.08705 0.25584 -3.72072 6.03954 -17.64128 -12.88525 98.81553 69.25629 -53.00915 -2.7537 -1.48201 13.10411 11.03247 100.02 -50.23209 -43.68595 0.51888 -7.28554 7.73788 11.64774 -3.11507 0.75185 -3.34258 -3.52149 -3.03994 -0.58333 -13.9348 -6.27399 4.82409 5.18674 7.11236
-0.24844 0.95934 0.06762 209.85061 0 -2.74186 5.23388 2.56757 -2.90071 -2.87091 -0.1149 -3.65835 5.70816 -17.64406 -14.14313 97.36113 69.01918 -53.83885 -2.73871 -1.83685 13.69372 11.65908 100.02576 -50.06841 -44.58254 0.54837 -7.33627 7.75288 11.28996 -3.04102 0.74287 -3.35093 -3.54371 -3.00026 -0.58688 -14.20292 -6.2623 4.77274 5.14715 7.02554
-0.24856 0.95933 0.06762 210.11921 0 -2.70831 5.04671 2.54272 -2.69002 -2.56922 -0.64282 -3.54235 4.5185 -17.27654 -14.67658 97.49 74.77012 -54.63477 -3.1928 -2.46255 14.30436 11.95649 101.28787 -50.35421 -44.32774 0.57373 -7.41039 7.74923 10.96639 -2.93888 0.7381 -3.33081 -3.50693 -2.98789 -0.59877 -14.37724 -6.24609 4.73729 5.11598 6.94384
